<svg xmlns="http://www.w3.org/2000/svg" xmlns:xlink="http://www.w3.org/1999/xlink" width="1922" height="732" viewBox="0 0 1922 732"><defs><style>.a{fill:#fff;stroke:#707070;}.b{clip-path:url(#a);}.c{fill:#65ccb8;}.d{fill:#2a3638;}.e{fill:#1b2628;}.f{fill:#0078ad;}.g{fill:#f1f1f1;}.h{fill:#dee1e2;}.i{fill:#71b699;}.j{fill:#7fc8b8;}.k{fill:#57ba98;}.l{fill:#f2f2f2;}.m{fill:#0e3e86;}.n{fill:#e67701;}.o{fill:#ffb3d0;}.p{fill:#1b53a6;}.q{fill:#ef88ba;}.r{fill:#5e86c3;}.s{fill:#ff99c0;}.t{fill:#e162a1;}.u{fill:#fcc419;}.v{fill:#06b790;}.w{fill:#009172;}.x{fill:#35819d;}.y{fill:#f5a000;}.z{fill:#e67199;}.aa{fill:#ff9ac0;}.ab{fill:#0f4b93;}.ac{fill:#3b69b0;}.ad{fill:#ff80b0;}.ae{fill:#0c3775;}.af{fill:#29bf9d;}.ag{fill:#e65a8b;}</style><clipPath id="a"><rect class="a" width="1922" height="732" transform="translate(0 348)"/></clipPath></defs><g class="b" transform="translate(0 -348)"><g transform="translate(-5575.112 131.654)"><path class="c" d="M8824.892,1609.652h-6.115l-9.645.688-66.82,4.769-5.977.426-13.437.96-3.494.249h-.021s-2.879.153-7.877.369c-.416.02-.855.036-1.3.056-3.326.14-7.447.3-12.176.465-1.775.063-3.637.123-5.572.183-.367.01-.732.023-1.105.033q-4.066.125-8.52.236c-6.107.15-12.7.279-19.561.356-2.666.03-5.379.053-8.109.07-1.426.007-2.863.01-4.3.01q-2.6,0-5.217,0c-2.582-.007-5.176-.027-7.764-.057-1.9-.02-3.807-.046-5.7-.076q-3.97-.07-7.906-.176-.6-.016-1.205-.037c-1.221-.033-2.441-.07-3.654-.113-6.02-.206-11.895-.488-17.484-.864q-1.412-.1-2.791-.2c-21.023-1.562-37.439-4.543-41.219-9.88-3.436-4.889,3.988-11.844,28.482-21.518q6.114-2.413,12.736-4.623c28.422-9.5,63.416-16.241,100.082-21q2.279-.3,4.564-.582l.7-.09c.418-.05.834-.1,1.248-.153.826-.1,1.654-.2,2.471-.3,1.447-.176,2.893-.349,4.348-.515,7.32-.851,14.688-1.625,22.053-2.33q2.786-.269,5.566-.521,1.307-.12,2.6-.236c.6-.057,1.2-.11,1.8-.16.912-.08,1.828-.159,2.74-.236,30.689-2.635,50.238-4.066,77.574-4.9C8824.921,1550.23,8825.395,1609.275,8824.892,1609.652Z" transform="translate(-1330.01 -788.322)"/><g transform="translate(6647.809 485.102)"><path class="d" d="M7820.821,1339.465h-9.543l2.055-270.593h4.838Z" transform="translate(-7716.752 -949.356)"/><path class="d" d="M7679.8,1064.348l-69.394,59.421-26.97,23.1-2.041-2.061,23.88-26.484,39.117-43.38,30.914-16.2Z" transform="translate(-7581.392 -943.392)"/><path class="d" d="M7610.4,1209.083l-26.97,23.1-2.041-2.062,23.88-26.484Z" transform="translate(-7581.392 -1028.706)"/><path class="d" d="M7756.139,895.161l-6.771,2.406-34.022-86.744-12.3-31.364,2.619-1.249,16.5,30.023,28.816,52.409Z" transform="translate(-7653.022 -778.209)"/><path class="d" d="M7722.168,808.233l-6.823,2.59-12.3-31.364,2.619-1.249Z" transform="translate(-7653.022 -778.209)"/><path class="d" d="M7948.221,1059.03l-45.283,3.131-48.563,3.358-33.491-9.826.663-7.154,79.32,4.753,47.318,2.834Z" transform="translate(-7722.408 -937.383)"/><path class="d" d="M8062.756,1065.836l-46.9,3.243-.452-8.982,47.317,2.834Z" transform="translate(-7836.945 -944.189)"/><path class="d" d="M7812.318,1046.3a6.23,6.23,0,1,0,5.846,6.591A6.231,6.231,0,0,0,7812.318,1046.3Z" transform="translate(-7713.477 -936.061)"/></g><g transform="translate(6480.902 747.651)"><path class="c" d="M6975.742,1712.4h259.207l108.058-.071H7538.42s.114-.2.333-.589c.157-.279.37-.655.644-1.135l.106-.141v-.07s.106-.075.106-.146a16.606,16.606,0,0,0,1.185-2.005,12.605,12.605,0,0,1,.758-1.221v-.145l.106-.071c1.479-2.559,3.316-5.891,5.437-9.918q.289-.548.579-1.107c1.057-3.042,2.219-6.449,3.455-10.2,2.939-9.106,6.312-20.222,9.608-32.771,1.291-4.949,2.583-10.111,3.8-15.492.718-3.1,1.44-6.339,2.131-9.605.2-.958.4-1.915.593-2.873,1.269-6.115,2.462-12.415,3.537-18.853,2.111-12.6,3.78-25.737,4.719-39.046-83.935,4.325-245.73,15.712-367.432,42.893-171.726,38.352-362.42,56.575-362.42,56.575S6926.921,1690.651,6975.742,1712.4Z" transform="translate(-6889.783 -1563.941)"/><path class="c" d="M7286.936,1684.9s278.128-84.709,348.159-90.844,2.943,8.2,2.943,8.2-190.342,49.515-234.583,70.633C7309.894,1717.55,7286.936,1684.9,7286.936,1684.9Z" transform="translate(-7091.824 -1582.052)"/><path class="c" d="M7473.017,1725.814s231.8-106.465,294.522-123.765,4.043,6.883,4.043,6.883-183.021,95.437-221.36,119.532C7544.672,1731.952,7473.017,1725.814,7473.017,1725.814Z" transform="translate(-7193.897 -1583.854)"/></g><path class="d" d="M7454.175,1056.076l-50.1,6.446-50.1,6.538-30.85-7.091a6.508,6.508,0,0,1-3.5,2.948l2.21,285.2a35.517,35.517,0,0,0-9.21,6.445l1.75-289.991-67.411,65.108-27.442,26.43-2.3-2.026,23.944-29.93,39.137-48.991,30.39-18.326c-.092-.092-.092-.092-.092-.185a6.941,6.941,0,0,1,1.289-3.868l-38.677-83.71-15.2-32.785,2.672-1.565,19.614,31.126,34.258,54.333,6.538,30.758H7453.99Z" transform="translate(-855.844 -488.335)"/><g transform="translate(7009.61 216.273)"><path class="d" d="M8525.049,1204.908h-13.689l2.946-426.986h6.94Z" transform="translate(-8346.596 -601.659)"/><path class="d" d="M8520.227,560l58.757-117.131,22.836-45.526,3.843,1.593L8588.8,447.228l-27.629,79.1-31.887,38.593Z" transform="translate(-8351.357 -397.346)"/><path class="d" d="M8647.092,442.872l22.834-45.526,3.844,1.593L8656.9,447.228Z" transform="translate(-8419.465 -397.346)"/><path class="d" d="M8511.576,757.582l7.619-6.944,93.18,95.813,33.691,34.643-2.77,3.107-38.506-30.534-67.221-53.3Z" transform="translate(-8346.712 -587.012)"/><path class="d" d="M8712.841,964.727l7.584-7.216,33.691,34.643-2.77,3.107Z" transform="translate(-8454.761 -698.072)"/><path class="d" d="M8155.611,822.515l58.142-29.3,62.357-31.42,49.748-5.611,3.1,9.829L8221.421,803.8l-64.15,22.539Z" transform="translate(-8155.611 -589.991)"/><path class="d" d="M8155.611,864.224l60.222-30.345,5.588,11.626-64.15,22.539Z" transform="translate(-8155.611 -631.7)"/><path class="d" d="M8518.039,759.525a8.935,8.935,0,1,0-11.393-5.468A8.938,8.938,0,0,0,8518.039,759.525Z" transform="translate(-8343.794 -582.459)"/></g><g transform="translate(6001.745 713.476)"><g transform="translate(0 0)"><g transform="translate(42.127 30.177)"><path class="e" d="M7396.3,1697.958l7.747-.1,18.093-75.388-7.747.1Z" transform="translate(-7383.501 -1622.472)"/><path class="e" d="M7351.372,1884.12h34.739a3.68,3.68,0,0,0-3.68-3.68h-27.379a3.68,3.68,0,0,0-3.68,3.68Z" transform="translate(-7351.372 -1806.958)"/></g><path class="e" d="M7325.855,1588.969l-3.336-16.729h0l-.008-.035-11.1-55.67-107.929.016,14.448,72.434,20.5,0h.193l22.942,0h.07l22.843,0h.156l22.793,0h.206Z" transform="translate(-7203.479 -1516.535)"/><g transform="translate(1.849)"><path class="f" d="M7332.346,1587.537l-107.929.015-14.448-71,107.929-.015Z" transform="translate(-7209.969 -1516.535)"/><g transform="translate(3.389 0.194)"><g transform="translate(17.15 0.01)"><path class="g" d="M7296.69,1588.059h-.207l-14.409-70.811h.206Z" transform="translate(-7282.075 -1517.248)"/></g><g transform="translate(40.149 0.006)"><path class="g" d="M7377.432,1588.048h-.207l-14.408-70.811h.207Z" transform="translate(-7362.816 -1517.237)"/></g><g transform="translate(63.149 0.003)"><path class="g" d="M7458.172,1588.036h-.206l-14.409-70.811h.207Z" transform="translate(-7443.557 -1517.225)"/></g><g transform="translate(86.148)"><path class="g" d="M7538.915,1588.025h-.207l-14.409-70.811h.207Z" transform="translate(-7524.298 -1517.214)"/></g><g transform="translate(0 16.463)"><path class="g" d="M7329.836,1575.2l-107.929.015-.039-.194,107.929-.015Z" transform="translate(-7221.868 -1575.009)"/></g><g transform="translate(3.841 35.34)"><path class="g" d="M7343.321,1641.473l-107.929.015-.039-.194,107.928-.015Z" transform="translate(-7235.354 -1641.279)"/></g><g transform="translate(7.682 54.217)"><path class="g" d="M7356.806,1707.741l-107.929.015-.04-.194,107.93-.016Z" transform="translate(-7248.837 -1707.547)"/></g></g><g transform="translate(21.791 14.669)"><path class="g" d="M7289.116,1572.24l-2.647-2.087,1.8-2.087,2.646,2.087Z" transform="translate(-7286.469 -1568.056)"/><path class="g" d="M7302.67,1638.85l-2.647-2.087,1.8-2.087,2.646,2.087Z" transform="translate(-7296.162 -1615.692)"/><path class="g" d="M7370.22,1572.229l-2.646-2.087,1.8-2.087,2.647,2.087Z" transform="translate(-7344.471 -1568.048)"/><path class="g" d="M7383.773,1638.838l-2.646-2.087,1.8-2.088,2.646,2.087Z" transform="translate(-7354.164 -1615.683)"/><path class="g" d="M7450.96,1572.217l-2.646-2.087,1.8-2.087,2.646,2.087Z" transform="translate(-7402.212 -1568.039)"/><path class="g" d="M7530.978,1572.206l-2.646-2.087,1.8-2.087,2.646,2.087Z" transform="translate(-7459.437 -1568.032)"/><path class="g" d="M7316.085,1704.778l-2.646-2.087,1.8-2.087,2.646,2.087Z" transform="translate(-7305.756 -1662.84)"/><path class="g" d="M7397.189,1704.767l-2.646-2.087,1.8-2.087,2.646,2.087Z" transform="translate(-7363.758 -1662.832)"/><path class="g" d="M7477.93,1704.755l-2.646-2.087,1.8-2.087,2.646,2.087Z" transform="translate(-7421.499 -1662.824)"/><path class="g" d="M7557.946,1704.744l-2.646-2.087,1.8-2.087,2.646,2.087Z" transform="translate(-7478.723 -1662.816)"/><path class="g" d="M7544.531,1638.815l-2.646-2.087,1.8-2.087,2.647,2.087Z" transform="translate(-7469.129 -1615.667)"/><path class="g" d="M7464.515,1638.827l-2.646-2.087,1.8-2.087,2.646,2.087Z" transform="translate(-7411.906 -1615.676)"/></g></g></g></g><g transform="translate(5820.112 688.086)"><g transform="translate(0 0)"><g transform="translate(57.732 41.355)"><path class="e" d="M6830.085,1625.575l10.617-.133,24.794-103.314-10.616.132Z" transform="translate(-6812.546 -1522.128)"/><path class="e" d="M6768.515,1880.7h47.608a5.043,5.043,0,0,0-5.043-5.043h-37.521a5.043,5.043,0,0,0-5.044,5.043Z" transform="translate(-6768.515 -1774.952)"/></g><path class="e" d="M6733.548,1476.214l-4.572-22.925h0l-.009-.048-15.218-76.292-147.908.021,19.8,99.266,28.094,0H6614l31.441,0h.1l31.3,0h.214l31.236,0h.283Z" transform="translate(-6565.841 -1376.948)"/><g transform="translate(2.533)"><path class="f" d="M6742.442,1474.252l-147.909.021-19.8-97.3,147.909-.021Z" transform="translate(-6574.733 -1376.948)"/><g transform="translate(4.645 0.265)"><g transform="translate(23.503 0.013)"><path class="g" d="M6693.579,1474.968h-.283l-19.747-97.042h.283Z" transform="translate(-6673.549 -1377.927)"/></g><g transform="translate(55.022 0.009)"><path class="g" d="M6804.229,1474.953h-.283l-19.747-97.042h.283Z" transform="translate(-6784.199 -1377.911)"/></g><g transform="translate(86.541 0.004)"><path class="g" d="M6914.878,1474.936h-.282l-19.747-97.042h.283Z" transform="translate(-6894.849 -1377.895)"/></g><g transform="translate(118.059)"><path class="g" d="M7025.528,1474.921h-.283L7005.5,1377.88h.283Z" transform="translate(-7005.499 -1377.88)"/></g><g transform="translate(0 22.561)"><path class="g" d="M6739,1457.349l-147.908.021-.054-.266,147.908-.021Z" transform="translate(-6591.04 -1457.083)"/></g><g transform="translate(5.264 48.431)"><path class="g" d="M6757.482,1548.167l-147.909.021-.054-.266,147.908-.021Z" transform="translate(-6609.52 -1547.901)"/></g><g transform="translate(10.528 74.3)"><path class="g" d="M6775.962,1638.983l-147.909.021-.054-.266,147.909-.021Z" transform="translate(-6628 -1638.718)"/></g></g><g transform="translate(29.863 20.103)"><path class="g" d="M6683.2,1453.289l-3.627-2.86,2.463-2.861,3.627,2.86Z" transform="translate(-6679.571 -1447.555)"/><path class="g" d="M6701.772,1544.572l-3.626-2.86,2.463-2.861,3.626,2.86Z" transform="translate(-6692.855 -1512.836)"/><path class="g" d="M6794.345,1453.273l-3.627-2.86,2.463-2.861,3.626,2.86Z" transform="translate(-6759.058 -1447.543)"/><path class="g" d="M6812.92,1544.556l-3.627-2.859,2.462-2.861,3.627,2.86Z" transform="translate(-6772.342 -1512.825)"/><path class="g" d="M6904.994,1453.257l-3.627-2.86,2.463-2.861,3.627,2.86Z" transform="translate(-6838.188 -1447.532)"/><path class="g" d="M7014.65,1453.242l-3.626-2.86,2.463-2.861,3.626,2.86Z" transform="translate(-6916.609 -1447.521)"/><path class="g" d="M6720.157,1634.923l-3.626-2.86,2.462-2.861,3.627,2.86Z" transform="translate(-6706.002 -1577.45)"/><path class="g" d="M6831.3,1634.907l-3.627-2.86,2.463-2.861,3.627,2.86Z" transform="translate(-6785.489 -1577.439)"/><path class="g" d="M6941.954,1634.891l-3.627-2.86,2.463-2.861,3.627,2.86Z" transform="translate(-6864.62 -1577.427)"/><path class="g" d="M7051.61,1634.876l-3.627-2.86,2.463-2.861,3.627,2.86Z" transform="translate(-6943.04 -1577.417)"/><path class="g" d="M7033.227,1544.525l-3.627-2.86,2.463-2.861,3.627,2.86Z" transform="translate(-6929.894 -1512.803)"/><path class="g" d="M6923.569,1544.541l-3.627-2.86,2.463-2.861,3.627,2.86Z" transform="translate(-6851.472 -1512.814)"/></g></g></g></g><g transform="translate(6964.878 560.91)"><g transform="translate(0 0)"><g transform="translate(81.471)"><rect class="h" width="165.512" height="232.067" transform="translate(11.394 96.401)"/><path class="g" d="M8743.22,1314.2v225.873h-128.6V1307.992h123C8739.547,1310.04,8741.413,1312.087,8743.22,1314.2Z" transform="translate(-8437.72 -1211.62)"/><path class="i" d="M8378.144,1086.026l-13.069,26.924-5.783,11.866-.18.482-.241.422-.182.361-.3.6-.121.3-5.721,11.745-.3.6-.723,1.566-10.18,20.9-2.35,4.878-3.312,6.746-1.746,3.615H8169.2l11.384-14.757.361-.482,74.085-95.891.061-.06h6.5l100.469-.361C8365.616,1072.293,8371.218,1079.16,8378.144,1086.026Z" transform="translate(-8169.198 -1065.427)"/><path class="h" d="M8355.964,1176.456v19.3l-165.512,6.994v-25.172h-4.9l85.894-111.241Z" transform="translate(-8179.059 -1065.938)"/><g transform="translate(85.44)"><path class="j" d="M8619.477,1183.151H8472.749l-7.407-9.818-8.734-11.625-68.725-91.615-3.192-4.276-.363-.482h146.729l.361.482,3.192,4.276,68.725,91.615,8.734,11.625Z" transform="translate(-8384.327 -1065.336)"/></g></g><g transform="translate(0 142.821)"><path class="i" d="M8119.963,1424.945l-38.607,79.488h-117.3l61.152-79.2Z" transform="translate(-7964.06 -1424.945)"/><g transform="translate(3.515)"><path class="h" d="M8128.813,1424.945l-38.608,79.488H7972.91l61.152-79.2Z" transform="translate(-7972.91 -1424.945)"/><path class="h" d="M8089.951,1623.085v108.331l-117.037.229v-106.17Z" transform="translate(-7972.912 -1545.989)"/><rect class="g" width="99.107" height="105.941" transform="translate(117.039 79.487)"/><path class="j" d="M8287.434,1509.571H8180.966l-62.935-83.9,31.714.005,72.924.016Z" transform="translate(-8060.396 -1425.383)"/><path class="i" d="M8335.573,1509.579h-20.207l-117.48-83.894,72.924.016Z" transform="translate(-8108.535 -1425.391)"/></g></g></g><g transform="translate(240.991 47.542)"><path class="f" d="M8613.346,1237.159H8693.9l-42.494-52.113h-80.551Z" transform="translate(-8570.854 -1185.044)"/><g transform="translate(10.471)"><path class="g" d="M8597.719,1218.677h80.552l-.5-.613H8597.22Z" transform="translate(-8597.22 -1204.949)"/><path class="g" d="M8726,1185.042l42.493,52.114h.613l-42.493-52.114Z" transform="translate(-8674.854 -1185.042)"/><path class="g" d="M8672.262,1185.042l42.494,52.114h.612l-42.494-52.114Z" transform="translate(-8642.458 -1185.042)"/><path class="g" d="M8620.553,1185.042l42.493,52.114h.613l-42.494-52.114Z" transform="translate(-8611.286 -1185.042)"/><path class="g" d="M8624.22,1250.5h80.552l-.5-.613H8623.72Z" transform="translate(-8613.195 -1224.131)"/><path class="g" d="M8652.205,1284.817h80.553l-.5-.613h-80.551Z" transform="translate(-8630.067 -1244.822)"/><g transform="translate(18.042 10.954)"><path class="g" d="M8752.842,1217.642l.464-2.51-4.557-2.51-.464,2.51Z" transform="translate(-8706.33 -1212.622)"/><path class="g" d="M8699.684,1217.642l.463-2.51-4.556-2.51-.464,2.51Z" transform="translate(-8674.284 -1212.622)"/><path class="g" d="M8647.2,1217.642l.463-2.51-4.556-2.51-.464,2.51Z" transform="translate(-8642.646 -1212.622)"/></g><g transform="translate(28.311 23.548)"><path class="g" d="M8778.7,1249.353l.464-2.51-4.556-2.51-.465,2.51Z" transform="translate(-8732.187 -1244.334)"/><path class="g" d="M8725.54,1249.353l.463-2.51-4.556-2.51-.464,2.51Z" transform="translate(-8700.14 -1244.334)"/><path class="g" d="M8673.059,1249.353l.465-2.51-4.559-2.51-.463,2.51Z" transform="translate(-8668.502 -1244.334)"/></g><g transform="translate(39.425 37.179)"><path class="g" d="M8806.686,1283.676l.464-2.51-4.557-2.51-.465,2.51Z" transform="translate(-8760.172 -1278.656)"/><path class="g" d="M8753.525,1283.676l.465-2.51-4.558-2.51-.463,2.51Z" transform="translate(-8728.127 -1278.656)"/><path class="g" d="M8701.045,1283.676l.465-2.51-4.557-2.51-.465,2.51Z" transform="translate(-8696.488 -1278.656)"/></g></g></g><g transform="translate(92.935 163.628)"><path class="f" d="M8236.563,1524.559h72.989l-38.5-47.22h-72.988Z" transform="translate(-8198.062 -1477.337)"/><g transform="translate(9.488)"><path class="g" d="M8222.4,1507.812h72.99l-.453-.555h-72.99Z" transform="translate(-8221.951 -1495.373)"/><path class="g" d="M8338.64,1477.335l38.5,47.221h.556l-38.5-47.221Z" transform="translate(-8292.297 -1477.335)"/><path class="g" d="M8289.948,1477.335l38.5,47.221h.556l-38.5-47.221Z" transform="translate(-8262.943 -1477.335)"/><path class="g" d="M8243.094,1477.335l38.5,47.221h.556l-38.5-47.221Z" transform="translate(-8234.696 -1477.335)"/><path class="g" d="M8246.418,1536.643h72.988l-.452-.555h-72.989Z" transform="translate(-8236.428 -1512.754)"/><path class="g" d="M8271.775,1567.742h72.989l-.454-.555h-72.988Z" transform="translate(-8251.715 -1531.502)"/><g transform="translate(16.348 9.925)"><path class="g" d="M8362.964,1506.875l.421-2.274-4.13-2.275-.42,2.275Z" transform="translate(-8320.819 -1502.327)"/><path class="g" d="M8314.8,1506.875l.419-2.274-4.13-2.275-.419,2.275Z" transform="translate(-8291.78 -1502.327)"/><path class="g" d="M8267.242,1506.875l.421-2.274-4.129-2.275-.421,2.275Z" transform="translate(-8263.113 -1502.327)"/></g><g transform="translate(25.653 21.337)"><path class="g" d="M8386.393,1535.609l.421-2.274-4.13-2.274-.42,2.274Z" transform="translate(-8344.248 -1531.06)"/><path class="g" d="M8338.224,1535.609l.419-2.274-4.128-2.274-.42,2.274Z" transform="translate(-8315.209 -1531.06)"/><path class="g" d="M8290.671,1535.609l.421-2.274-4.129-2.274-.421,2.274Z" transform="translate(-8286.542 -1531.06)"/></g><g transform="translate(35.724 33.688)"><path class="g" d="M8411.752,1566.708l.42-2.274-4.129-2.274-.42,2.274Z" transform="translate(-8369.607 -1562.16)"/><path class="g" d="M8363.584,1566.708l.418-2.274-4.129-2.274-.418,2.274Z" transform="translate(-8340.568 -1562.16)"/><path class="g" d="M8316.03,1566.708l.42-2.274-4.129-2.274-.42,2.274Z" transform="translate(-8311.901 -1562.16)"/></g></g></g></g><path class="k" d="M8573.385,1635.79c-11.189.151-23.289.595-35.889,1.427l-2.248.149q-3.308.235-6.664.5-7.324.579-14.84,1.346c-.008,0-.012,0-.016,0-1.494.153-2.975.309-4.477.475q-2.411.259-4.838.545-5.2.608-10.486,1.316-2.317.309-4.654.645c-1.559.216-3.117.445-4.686.678q-2.845.428-5.707.88h-.008l-1.781.289h-.006q-2.625.429-5.264.881-10.673,1.829-21.537,4.111c-11.881,2.485-22.432,4.935-31.863,7.321-11.973,3.021-22.146,5.942-30.937,8.7-8.682,2.718-16.053,5.3-22.523,7.71-35.057,13.054-43.689,21.109-91.506,18.853q-6.393-.294-12.252-.242a169.693,169.693,0,0,0-33.1,3.283c-18.7,3.868-30.85,10.472-38.237,15.982a44.276,44.276,0,0,0-9.591,9.245c-.1.136-.144.209-.144.209h393.25S8573.15,1635.807,8573.385,1635.79Z" transform="translate(-1077.819 -823.985)"/><path class="l" d="M5563.023,830.533s432.006-24.423,719.711-14c416.489,18.092,552.506,55.6,797.769,68.573,235.084,12.438,416.115,0,416.115,0v79.725H5575.112Z"/></g><g transform="translate(474.153 911.271)"><path class="m" d="M353.991,328a17.991,17.991,0,1,0,17.991,17.991A17.991,17.991,0,0,0,353.991,328Zm0,32.384a14.393,14.393,0,1,1,14.393-14.393A14.393,14.393,0,0,1,353.991,360.384Z" transform="translate(-248.035 -217.03)"/><path class="n" d="M166.42,408.21l10.821-3.706.583,1.7L167,409.912Z" transform="translate(-116.592 -276.329)"/><path class="o" d="M207.344,70.574v3.6a2.7,2.7,0,0,1-2.7,2.7H200.19V69h5.58A1.574,1.574,0,0,1,207.344,70.574Z" transform="translate(-142.767 -16.277)"/><path class="o" d="M200,92h3.6v6.3H200Z" transform="translate(-142.62 -34.105)"/><path class="p" d="M144,396v3.6h12.4a.45.45,0,0,0,.318-.768L153.883,396Z" transform="translate(-99.214 -269.738)"/><path class="q" d="M170.424,112.885a5.306,5.306,0,0,1,2.071,7.7l-.272.407-.675,12.594h-18.99l3.838-15.716A7.7,7.7,0,0,1,163.876,112h2.744a8.61,8.61,0,0,1,3.8.885Z" transform="translate(-105.847 -49.607)"/><path class="r" d="M446.841,387.124a.9.9,0,0,1-.636-1.536,9.906,9.906,0,0,0,0-13.994.9.9,0,1,1,1.272-1.272,11.708,11.708,0,0,1,0,16.538A.9.9,0,0,1,446.841,387.124Z" transform="translate(-333.251 -249.63)"/><path class="s" d="M161.542,224l3.506,11.688a12.847,12.847,0,0,1-1.245,10.227L153.9,262.681H144l12.594-21.59L152.321,224Z" transform="translate(-99.214 -136.419)"/><path class="q" d="M196.649,114.231l2.721,7.255-.263.1-6.43,2.6-2.548-7.64a3.459,3.459,0,0,1,6.52-2.31Z" transform="translate(-134.83 -49.593)"/><path class="o" d="M232.2,149.668V152.6H225l-10.912,6.236a7.294,7.294,0,0,1-10.541-4.028L202.08,150.4l6.43-2.6.263-.1,1.835,4.894,12.14-6.07a6.8,6.8,0,0,1,4.7-.515l2.366.591A3.152,3.152,0,0,1,232.2,149.668Z" transform="translate(-144.232 -75.816)"/><path class="t" d="M217.227,122.99a.9.9,0,0,1-.842-.585l-2.421-6.458a2.538,2.538,0,0,0-.394-.7.9.9,0,1,1,1.406-1.122,4.34,4.34,0,0,1,.673,1.189l2.422,6.456a.9.9,0,0,1-.842,1.216Z" transform="translate(-152.985 -50.994)"/><path class="t" d="M192.038,143.21a.9.9,0,0,1-.853-.615l-1.659-4.975a.9.9,0,0,1,1.707-.569l1.659,4.975a.9.9,0,0,1-.855,1.184Z" transform="translate(-134.466 -68.549)"/><path class="n" d="M156,412h5.4v2.7a.9.9,0,0,1-.9.9h-3.6a.9.9,0,0,1-.9-.9V412Z" transform="translate(-108.515 -282.14)"/><path class="r" d="M446.841,387.124a.9.9,0,0,1-.636-1.536,9.906,9.906,0,0,0,0-13.994.9.9,0,1,1,1.272-1.272,11.708,11.708,0,0,1,0,16.538A.9.9,0,0,1,446.841,387.124Z" transform="translate(-333.251 -249.63)"/><path class="m" d="M33.991,328a17.991,17.991,0,1,0,17.991,17.991A17.991,17.991,0,0,0,33.991,328Zm0,32.384a14.393,14.393,0,1,1,14.393-14.393A14.393,14.393,0,0,1,33.991,360.384Z" transform="translate(0 -217.03)"/><path class="p" d="M93.189,48.929l-1.107.739A11.482,11.482,0,0,1,85.71,51.6h0a11.477,11.477,0,0,0-8.963,4.308,12.489,12.489,0,0,1-9.753,4.688H64l6.867,13.734a1.192,1.192,0,0,0,1.067.659,19.937,19.937,0,0,0,14.1-5.84,8.128,8.128,0,0,1,3.179-1.964,8.13,8.13,0,0,0,4.977-4.693L96.384,57l.139-.045a3.745,3.745,0,0,0,2.56-3.553l2.7,1.8v-1.67a5.526,5.526,0,0,0-8.593-4.6Z" transform="translate(-37.205)"/><ellipse class="o" cx="2" cy="1.5" rx="2" ry="1.5" transform="translate(58 54.952)"/><path class="u" d="M165.71,224.767,158.521,205l-1.573-5.111h4.318v-1.8H156.4l-1.384-4.5h5.356v-1.8h-5.909l-2.834-9.208,1.312-.262A5.21,5.21,0,0,0,151.915,172h-6.84a.9.9,0,0,0,0,1.8h6.84a3.411,3.411,0,0,1,.669,6.756l-2.288.458a.9.9,0,0,0-.706,1.058.909.909,0,0,0,.022.089l3.053,9.921-38.106,10.452-2.8-10.084a.9.9,0,0,0-1.733.482l2.988,10.758L92.264,224.438a.9.9,0,0,0,.636,1.536h26.987a.879.879,0,0,0,.527-.174l0,0,34.851-25.267,1.543,5.013c0,.014.009.029.014.043l7.2,19.79a.9.9,0,0,0,1.7-.6l-.005-.015Zm-70.639-.592,18.494-18.494,5.137,18.494Zm25.336-.589-5.367-19.32L153.193,193.8l1.513,4.917Z" transform="translate(-58.908 -96.113)"/><path class="v" d="M424.016,106.738a.9.9,0,0,0-1.259-.18h0a18.937,18.937,0,0,0-6.111,7.9,33.666,33.666,0,0,0-5.277-14.063l-1.5.991a31.888,31.888,0,0,1,5.289,17.51l0,1.2a18.91,18.91,0,0,0-5.718-7.011.9.9,0,0,0-1.079,1.439,17.178,17.178,0,0,1,6.821,12.983l.016,4.966.9,0h.9V121.671A17.172,17.172,0,0,1,423.836,108a.9.9,0,0,0,.18-1.259Z" transform="translate(-303.847 -40.61)"/><path class="w" d="M453.5,171.252a6.078,6.078,0,0,1-6.313,4.5l-1.447-.1.652-1.3a6.077,6.077,0,0,1,7.107-3.1Z" transform="translate(-333.093 -95.35)"/><path class="w" d="M408.737,195.252a6.077,6.077,0,0,0,6.313,4.5l1.447-.1-.652-1.3a6.077,6.077,0,0,0-7.107-3.1Z" transform="translate(-304.414 -113.953)"/><path class="o" d="M257.991,265.8l-9,21.59h-9L249,264Z" transform="translate(-173.624 -167.424)"/><path class="x" d="M77.715,208l-.117.225a21.894,21.894,0,0,1-10.821,10.063,21.9,21.9,0,0,0-8.891,6.988L56,227.79l2.815-.562a23.734,23.734,0,0,1,12.159.757,23.728,23.728,0,0,0,9.866,1.1l9.407-.941a23.744,23.744,0,0,1,7.017.343l14.508,2.9,2.983-6.711a9.332,9.332,0,0,0-5.659-12.672L96.705,208Z" transform="translate(-31.004 -124.017)"/><path class="p" d="M240,368v3.6h11.508a.45.45,0,0,0,.318-.768L249,368Z" transform="translate(-173.624 -248.035)"/><circle class="n" cx="5" cy="5" r="5" transform="translate(56 123.952)"/><g transform="translate(60.929 88.48)"><path class="y" d="M215.831,392.195a.9.9,0,0,1,.559-1.143h0l10.163-3.486.584,1.7-10.163,3.486a.9.9,0,0,1-1.143-.559Z" transform="translate(-215.782 -351.681)"/><path class="y" d="M252,384h5.4v2.7a.9.9,0,0,1-.9.9h-3.6a.9.9,0,0,1-.9-.9V384Z" transform="translate(-243.855 -348.917)"/><path class="y" d="M412.955,228.3a.9.9,0,0,0-.667-.3H388.9a.9.9,0,0,0-.9.9c0,.03,0,.06,0,.09l1.8,17.991a.9.9,0,0,0,.9.81h19.79a.9.9,0,0,0,.9-.81l1.8-17.991A.9.9,0,0,0,412.955,228.3Zm-1.841,3.3h-1.79l.18-1.8h1.79Zm-13.3,5.4h1.885v1.8h-1.7Zm-1.628,1.8h-1.765l-.184-1.8H396Zm3.513-3.6H397.63l-.18-1.8h2.244Zm1.8-1.8h2.244l-.18,1.8h-2.065Zm-1.8,7.2v1.8h-1.345l-.18-1.8Zm1.8,0h1.525l-.18,1.8h-1.345Zm0-1.8V237h1.885l-.18,1.8Zm3.693-1.8h1.79l-.18,1.8h-1.79Zm.18-1.8.18-1.8h1.79l-.18,1.8Zm.36-3.6.18-1.8h1.79l-.18,1.8Zm-1.808,0h-2.424v-1.8h2.6Zm-4.223,0H397.27l-.18-1.8h2.6Zm-4.232,0h-1.783l-.184-1.8h1.787Zm.18,1.8.18,1.8h-1.774l-.184-1.8Zm-3.4,1.8h-1.806l-.18-1.8h1.8Zm.184,1.8.184,1.8h-1.815l-.18-1.8Zm-1.451,3.6h1.82l.185,1.8h-1.825Zm3.629,0h1.76l.18,1.8h-1.755Zm2.12,3.6.18,1.8h-1.746l-.184-1.8Zm1.808,0h1.165v1.8h-.985Zm2.964,0h1.165l-.18,1.8h-.985Zm2.973,0h1.79l-.18,1.8h-1.79Zm.18-1.8.18-1.8h1.79l-.18,1.8Zm3.778-1.8h1.79l-.18,1.8h-1.79Zm.18-1.8.18-1.8h1.79l-.18,1.8Zm.36-3.6.18-1.8h1.79l-.18,1.8Zm-17.279-5.4.184,1.8h-1.8l-.18-1.8Zm-.353,14.393h1.829l.184,1.8h-1.834Zm16.552,1.8.18-1.8h1.79l-.18,1.8Z" transform="translate(-349.27 -228)"/></g><path class="q" d="M456.733,108.579a2.816,2.816,0,0,0-1.561,4.8,4.1,4.1,0,1,0,8.173,0,2.816,2.816,0,0,0-1.561-4.8,2.817,2.817,0,0,0-5.051,0Z" transform="translate(-339.747 -45.738)"/><circle class="t" cx="1.799" cy="1.799" r="1.799" transform="translate(117.636 64.554)"/><path class="q" d="M400.424,81.565a2.816,2.816,0,0,0-1.561,4.8,4.1,4.1,0,1,0,8.173,0,2.816,2.816,0,0,0-1.56-4.8,2.817,2.817,0,0,0-5.052,0Z" transform="translate(-296.101 -24.799)"/><circle class="t" cx="1.799" cy="1.799" r="1.799" transform="translate(104.973 58.479)"/><path class="q" d="M397.233,137.579a2.816,2.816,0,0,1,1.561,4.8,4.1,4.1,0,1,1-8.173,0,2.816,2.816,0,0,1,1.561-4.8,2.817,2.817,0,0,1,5.051,0Z" transform="translate(-289.713 -68.216)"/><circle class="t" cx="1.799" cy="1.799" r="1.799" transform="translate(103.273 71.075)"/><path class="r" d="M55.694,416.594A11.708,11.708,0,0,1,44,404.9a.9.9,0,0,1,1.8,0,9.906,9.906,0,0,0,9.9,9.9.9.9,0,0,1,0,1.8Z" transform="translate(-21.703 -275.939)"/></g><g transform="translate(1246 854.232)"><path class="v" d="M192.09,96l0,27.867,22.931,0,0-25.818A2.049,2.049,0,0,0,212.973,96Z" transform="translate(-136.826 -57.247)"/><path class="o" d="M240,72.7v-6.52h4.1V72.7a2.049,2.049,0,1,1-4.1,0Z" transform="translate(-174.921 -33.539)"/><path class="x" d="M169.769,284.456h13.809a.41.41,0,0,0,.227-.751l-3.792-2.528,2.257-25.583a16.385,16.385,0,0,0-.232-4.537L178.375,232H155.426l1.639,22.949L146,284.456h16.268a.41.41,0,0,0,.227-.751l-3.792-2.528,7.93-23.066a16.389,16.389,0,0,0,.849-6.5l-.582-8.14h3.278l2.851,11.475Z" transform="translate(-100.182 -165.38)"/><path class="n" d="M251.039,246.456l2.8-1.711L276.083,281.1l-2.8,1.711Z" transform="translate(-183.698 -175.513)"/><path class="y" d="M234.138,215.659l-3.8,2.325a.82.82,0,0,0-.147,1.284l4.07,4,2.8-1.71-1.707-5.448a.819.819,0,0,0-1.209-.454Zm-2.053,3.176,2.012-1.229,1.011,3.225-.613.375Z" transform="translate(-166.924 -152.291)"/><path class="u" d="M339.652,393.744l-3.349-5.478-2.8,1.71,3.349,5.478a1.776,1.776,0,0,1-.589,2.441l-4.079,2.494,8.782,8.08,5.906.233,2.486-5.362-3.188-11.5-4.079,2.494a1.776,1.776,0,0,1-2.441-.589Z" transform="translate(-248.218 -289.626)"/><path class="o" d="M121.784,137.175a1.64,1.64,0,0,1,.659,2.224l-.007.014-2.512,4.52a1.637,1.637,0,0,1-2.2.652L96.484,133.3a6.722,6.722,0,0,1,.148-11.95l6.7-3.352,4.119,7.125.012.02-3.9,2.164,13.934,7.547.365-.2a1.6,1.6,0,0,1,2.346,1.67Z" transform="translate(-57.973 -74.739)"/><path class="o" d="M115.186,104.968l-7.721,4.291-3.9,2.164L117.5,118.97l.365-.2a1.6,1.6,0,0,1,2.346,1.67l1.57.85a1.64,1.64,0,0,1,.659,2.224l-.007.014-2.512,4.52a1.637,1.637,0,0,1-2.2.652L96.484,117.416a6.722,6.722,0,0,1,.148-11.95l6.7-3.352,8.188-4.094Z" transform="translate(-57.973 -58.853)"/><path class="v" d="M301.352,106.974l-7.069,2.922L288,95.95l3.076,0a8.194,8.194,0,0,1,7.45,4.805Z" transform="translate(-213.085 -57.207)"/><path class="o" d="M287.265,156.59a6.144,6.144,0,0,1-.818,6.409l-13.516,16.71a.821.821,0,0,1-1.139.133l-5.1-3.936a.821.821,0,0,1-.148-1.151l.016-.021,1.617-1.953-1.35-2.209a2.3,2.3,0,0,1,3.063.086l.025.02,9.895-11.962-2.723-6.045,7.069-2.922Z" transform="translate(-195.89 -99.983)"/><path class="q" d="M31.966,328l.643,5.145a3.3,3.3,0,0,1-.736,2.506l-3.186,3.823L25.5,335.651a3.3,3.3,0,0,1-.736-2.506L25.409,328Z" transform="translate(-3.769 -241.709)"/><path class="t" d="M42.985,328l.643,5.145a3.258,3.258,0,0,1-.137,1.42H38.6A7.961,7.961,0,0,1,42.985,328Z" transform="translate(-14.789 -241.709)"/><path class="v" d="M28.208,360.04H33.1a3.265,3.265,0,0,1-.6,1.086l-3.186,3.824-3.186-3.824a3.265,3.265,0,0,1-.6-1.086Z" transform="translate(-4.397 -267.183)"/><path class="q" d="M96.228,328l.643,5.145a3.3,3.3,0,0,1-.736,2.506l-3.186,3.823-3.186-3.823a3.3,3.3,0,0,1-.736-2.506L89.671,328Z" transform="translate(-54.864 -241.709)"/><path class="t" d="M107.247,328l.643,5.145a3.258,3.258,0,0,1-.137,1.42h-4.891A7.961,7.961,0,0,1,107.247,328Z" transform="translate(-65.883 -241.709)"/><path class="v" d="M92.47,360.04h4.891a3.266,3.266,0,0,1-.6,1.086l-3.186,3.824-3.186-3.824a3.265,3.265,0,0,1-.6-1.086Z" transform="translate(-55.491 -267.183)"/><path class="v" d="M40,368h1.639v24.589H40Z" transform="translate(-15.902 -273.512)"/><path class="w" d="M51.207,385.475a12.155,12.155,0,0,0-6.041,7.993l-.348,1.54,1.479-1.081a12.156,12.156,0,0,0,4.854-8.06Z" transform="translate(-19.732 -287.407)"/><path class="w" d="M24.416,395.319a12.156,12.156,0,0,1,3.931,9.217l-.034,1.578-1.173-1.406a12.156,12.156,0,0,1-2.763-8.994Z" transform="translate(-3.433 -295.234)"/><path class="v" d="M104,376h1.639v22.949H104Z" transform="translate(-66.788 -279.873)"/><g transform="translate(20 100.085)"><path class="w" d="M115.207,417.475a12.155,12.155,0,0,0-6.041,7.993l-.348,1.54,1.479-1.081a12.156,12.156,0,0,0,4.854-8.06Z" transform="translate(-90.618 -412.935)"/><path class="w" d="M88.416,395.319a12.156,12.156,0,0,1,3.931,9.217l-.034,1.578-1.173-1.406a12.156,12.156,0,0,1-2.763-8.994Z" transform="translate(-74.319 -395.319)"/><path class="w" d="M42.13,485.639H20.82a.82.82,0,1,1,0-1.639H42.13a.82.82,0,1,1,0,1.639Z" transform="translate(-20 -465.829)"/></g><path class="n" d="M433.835,449.056a3.235,3.235,0,0,0-4.689-1.245l-.5.336a3.063,3.063,0,0,0-1.364,2.549l-.346.173A5.3,5.3,0,0,0,424,455.613h14.753a6.823,6.823,0,0,0-4.665-6.473Z" transform="translate(-321.218 -336.537)"/><path class="v" d="M157.646,99.957a3.828,3.828,0,0,1-2.024,3.4l-7.721,4.291-.012-.02-4.119-7.125,8.188-4.094a3.933,3.933,0,0,1,5.688,3.545Z" transform="translate(-98.409 -57.245)"/><path class="z" d="M248,68h2.459v4.918h0A2.459,2.459,0,0,1,248,70.459V68Z" transform="translate(-181.281 -34.984)"/><path class="o" d="M240,48h5.762v6.147a2.049,2.049,0,0,1-2.049,2.049A3.713,3.713,0,0,1,240,52.483h0Z" transform="translate(-174.921 -19.082)"/><path class="p" d="M238.655,24v3.211a3.371,3.371,0,0,1-3.371,3.371h0a3.37,3.37,0,0,1-1.39-.3l-1.8-.813a3.547,3.547,0,0,1-3.547,3.547H228V28.452a3.279,3.279,0,0,1,2.78-3.24Z" transform="translate(-165.38 0)"/><circle class="o" cx="1.916" cy="1.916" r="1.916" transform="translate(63.102 30.817)"/></g><g transform="translate(1139.57 860.165)"><path class="o" d="M200,115.25v14.316a6.07,6.07,0,0,0,6.07,6.07h15.783a.809.809,0,0,0,.809-.809V129.97a.809.809,0,0,0-.809-.809H207.284V115.4Z" transform="translate(-139.922 -77.519)"/><path class="v" d="M207.284,100.047v10.588H200V96h3.237A4.046,4.046,0,0,1,207.284,100.047Z" transform="translate(-139.922 -62.164)"/><path class="v" d="M124.518,108.95V96H101.312l.572,12.94.03,14.579h22.6Z" transform="translate(-61.203 -62.164)"/><path class="p" d="M84.363,212.849l-4.342-2.481-2.428-48.562V147.237L71.118,144H61.405l-6.447,3.227.03,14.579-1.733,22.662L42.483,208.484l12.753,4.78a.4.4,0,0,0,.464-.624l-2.83-3.72,10.153-24.452,1.619-12.95,4.047.04,1.619,42.046H84.162a.4.4,0,0,0,.2-.756Z" transform="translate(-14.277 -100.452)"/><path class="p" d="M126.316,106.616,124.865,96H126.5l1.421,10.4Z" transform="translate(-79.99 -62.164)"/><path class="p" d="M181.641,107.087l-1.6-.223L181.551,96h1.635Z" transform="translate(-123.999 -62.164)"/><path class="o" d="M69.091,173.508a1.617,1.617,0,0,1,.848,2.2L67.9,179.949a1.619,1.619,0,0,1-2.072.8l-18.842-7.693a4.854,4.854,0,0,1-2.6-6.465l2.7-6.09,6.936,3.272.214.1-1.362,3,12.99,5.313.688-.429a.929.929,0,0,1,1.4.6l.16.753Z" transform="translate(-15.46 -113.613)"/><g transform="translate(87.261 59.757)"><path class="r" d="M347.521,239.728H347.5a.809.809,0,0,1-.792-.827q.007-.328.007-.655,0-.376-.01-.753a.81.81,0,1,1,1.619-.04q.01.4.01.793,0,.344-.008.69A.809.809,0,0,1,347.521,239.728Zm-.211-4.328a.809.809,0,0,1-.8-.714c-.055-.464-.121-.933-.2-1.393a.809.809,0,1,1,1.6-.266c.081.486.152.98.21,1.469a.809.809,0,0,1-.708.9A.785.785,0,0,1,347.31,235.4Zm-.812-4.256a.809.809,0,0,1-.782-.6c-.12-.452-.251-.907-.392-1.352a.809.809,0,0,1,1.544-.487c.148.47.287.949.413,1.425a.809.809,0,0,1-.783,1.016Zm-1.4-4.1a.809.809,0,0,1-.746-.495c-.117-.278-.24-.556-.363-.826l-.216-.472a.809.809,0,1,1,1.472-.673l.216.472c.13.284.259.577.382.87a.809.809,0,0,1-.745,1.124Z" transform="translate(-341.807 -224.104)"/><path class="r" d="M358.423,310.033h-.048a.809.809,0,0,1-.761-.855l.047-.808a.809.809,0,0,1,1.616.095l-.047.808A.809.809,0,0,1,358.423,310.033Z" transform="translate(-352.905 -290.71)"/><path class="r" d="M339.3,245.8a.811.811,0,0,1-.8-.945c.083-.49.155-.99.214-1.486a.809.809,0,0,1,1.608.191c-.062.522-.138,1.049-.226,1.565A.809.809,0,0,1,339.3,245.8Zm.43-4.6h-.015a.809.809,0,0,1-.794-.824q.005-.281.005-.562c0-.312,0-.627-.015-.939a.81.81,0,1,1,1.619-.051c.01.328.015.661.015.99q0,.3-.006.592A.809.809,0,0,1,339.729,241.2Zm-.26-4.612a.809.809,0,0,1-.8-.7c-.065-.493-.143-.991-.233-1.483a.809.809,0,1,1,1.592-.291c.095.517.177,1.043.245,1.563a.809.809,0,0,1-.7.908.793.793,0,0,1-.106.007Z" transform="translate(-337.597 -231.559)"/><path class="r" d="M335.154,303.782a.809.809,0,0,1-.775-1.044q.115-.378.219-.757a.809.809,0,1,1,1.561.429q-.11.4-.23.8A.809.809,0,0,1,335.154,303.782Z" transform="translate(-334.344 -285.748)"/><path class="r" d="M360.5,241.242a.809.809,0,0,1-.8-.7c-.065-.461-.142-.927-.229-1.384a.809.809,0,0,1,1.591-.3c.091.482.173.973.241,1.459a.809.809,0,0,1-.688.915A.843.843,0,0,1,360.5,241.242Zm-.9-4.224a.809.809,0,0,1-.777-.585c-.129-.447-.27-.9-.42-1.339a.809.809,0,1,1,1.533-.52c.158.465.306.94.442,1.411a.809.809,0,0,1-.778,1.034Zm-1.482-4.058a.809.809,0,0,1-.739-.479c-.19-.425-.393-.852-.6-1.267a.809.809,0,1,1,1.446-.728c.22.438.434.887.635,1.335a.809.809,0,0,1-.738,1.14Zm-2.034-3.811a.809.809,0,0,1-.687-.38c-.248-.4-.508-.789-.773-1.171a.809.809,0,1,1,1.33-.923c.279.4.553.817.815,1.234a.809.809,0,0,1-.685,1.24Z" transform="translate(-350.407 -225.878)"/><path class="r" d="M383.165,308.576a.809.809,0,0,1-.8-.7l-.114-.8a.809.809,0,0,1,1.6-.227l.113.8a.809.809,0,0,1-.688.915A.783.783,0,0,1,383.165,308.576Z" transform="translate(-372.551 -289.553)"/></g><path class="u" d="M152.568,23.6h-8.114V21.787a3.72,3.72,0,0,1,7.294-1.03Z" transform="translate(-95.615 0)"/><path class="o" d="M152.167,78.492V72h3.2v6.492a1.6,1.6,0,0,1-3.2,0Z" transform="translate(-101.768 -43.02)"/><path class="o" d="M150.475,96A3.237,3.237,0,1,1,144,96Z" transform="translate(-95.253 -62.164)"/><path class="z" d="M156,76h2.428v3.237A2.428,2.428,0,0,1,156,76.809Z" transform="translate(-104.825 -46.211)"/><ellipse class="y" cx="11.631" cy="2.788" rx="11.631" ry="2.788" transform="matrix(0.973, -0.232, 0.232, 0.973, 40.625, 23.716)"/><path class="o" d="M152,48h5.261v5.969a2.125,2.125,0,0,1-2.125,2.125A3.136,3.136,0,0,1,152,52.957Z" transform="translate(-101.635 -23.876)"/><path class="p" d="M152.094,39.167l.291,1.224a1.772,1.772,0,0,1-2.262,2.1l-2.278-.726a2.428,2.428,0,0,1-2.428,2.428H144V40.954Z" transform="translate(-95.253 -16.831)"/><circle class="o" cx="1.619" cy="1.619" r="1.619" transform="translate(48.747 25.742)"/><path class="y" d="M26.628,250.081l-2.044-2.511a57.972,57.972,0,0,0,20.444-34.59l1.291-7.112a8.833,8.833,0,0,1,17.132-1.024l.682,2.214a5.3,5.3,0,0,0,10.331-1.039l.991-10.031A7.771,7.771,0,0,1,90.418,193.9l.251.637-3.012,1.188-.251-.637a4.533,4.533,0,0,0-8.729,1.218l-.991,10.031a8.534,8.534,0,0,1-16.647,1.675l-.682-2.213a5.6,5.6,0,0,0-10.853.649l-1.292,7.112a61.212,61.212,0,0,1-21.585,36.522Z" transform="translate(0 -136.331)"/><path class="o" d="M51.821,107.75l-4.735,10.673-2.7,6.09a4.854,4.854,0,0,0,2.6,6.465l18.842,7.693a1.619,1.619,0,0,0,2.072-.8l2.038-4.243a1.617,1.617,0,0,0-.848-2.2l-.977-.4-.16-.753a.929.929,0,0,0-1.4-.6l-.688.429L52.875,124.8l1.362-3,4.88-10.771Z" transform="translate(-15.46 -71.536)"/><path class="v" d="M67.779,96a4,4,0,0,1,3.642,5.649l-4.88,10.771-.214-.1-6.936-3.272,4.735-10.673A3.993,3.993,0,0,1,67.779,96Z" transform="translate(-27.763 -62.164)"/><path class="aa" d="M283.237,181.619V182.7a1.619,1.619,0,1,1-3.237,0v-1.085a1.619,1.619,0,1,1,3.237,0Z" transform="translate(-203.735 -129.167)"/><path class="q" d="M319.558,328l.635,5.081a3.256,3.256,0,0,1-.726,2.475l-3.146,3.776-3.146-3.776a3.256,3.256,0,0,1-.726-2.475l.635-5.081Z" transform="translate(-229.598 -247.221)"/><path class="t" d="M330.613,328l.635,5.081a3.217,3.217,0,0,1-.136,1.4h-4.83A7.861,7.861,0,0,1,330.613,328Z" transform="translate(-240.653 -247.221)"/><path class="v" d="M315.858,360.04h4.83a3.227,3.227,0,0,1-.591,1.072l-3.146,3.776-3.146-3.776a3.228,3.228,0,0,1-.591-1.072Z" transform="translate(-230.228 -272.778)"/><path class="v" d="M327.683,368H329.3v24.281h-1.619Z" transform="translate(-241.77 -279.127)"/><path class="w" d="M338.81,385.475a12,12,0,0,0-5.966,7.893l-.344,1.521,1.46-1.068a12,12,0,0,0,4.792-7.959Z" transform="translate(-245.612 -293.066)"/><path class="w" d="M312.1,395.319a12,12,0,0,1,3.882,9.1l-.034,1.558-1.159-1.389a12,12,0,0,1-2.728-8.882Z" transform="translate(-229.258 -300.919)"/><path class="q" d="M383.558,328l.635,5.081a3.256,3.256,0,0,1-.726,2.475l-3.146,3.776-3.146-3.776a3.256,3.256,0,0,1-.726-2.475l.635-5.081Z" transform="translate(-280.649 -247.221)"/><path class="t" d="M394.613,328l.635,5.081a3.217,3.217,0,0,1-.136,1.4h-4.83A7.861,7.861,0,0,1,394.613,328Z" transform="translate(-291.703 -247.221)"/><path class="v" d="M379.858,360.04h4.83a3.226,3.226,0,0,1-.591,1.072l-3.146,3.776-3.146-3.776a3.227,3.227,0,0,1-.591-1.072Z" transform="translate(-281.278 -272.778)"/><path class="v" d="M391.683,368H393.3v24.281h-1.619Z" transform="translate(-292.82 -279.127)"/><path class="w" d="M402.81,385.475a12,12,0,0,0-5.966,7.893l-.344,1.521,1.46-1.068a12,12,0,0,0,4.792-7.959Z" transform="translate(-296.662 -293.066)"/><path class="w" d="M376.1,395.319a12,12,0,0,1,3.882,9.1l-.034,1.558-1.159-1.389a12,12,0,0,1-2.728-8.882Z" transform="translate(-280.308 -300.919)"/><path class="q" d="M447.558,328l.635,5.081a3.256,3.256,0,0,1-.726,2.475l-3.146,3.776-3.146-3.776a3.256,3.256,0,0,1-.726-2.475l.635-5.081Z" transform="translate(-331.699 -247.221)"/><path class="t" d="M458.613,328l.635,5.081a3.218,3.218,0,0,1-.136,1.4h-4.83A7.861,7.861,0,0,1,458.613,328Z" transform="translate(-342.754 -247.221)"/><path class="v" d="M443.858,360.04h4.83a3.226,3.226,0,0,1-.591,1.072l-3.146,3.776-3.146-3.776a3.227,3.227,0,0,1-.591-1.072Z" transform="translate(-332.328 -272.778)"/><path class="v" d="M455.683,368H457.3v24.281h-1.619Z" transform="translate(-343.87 -279.127)"/><path class="w" d="M466.81,385.475a12,12,0,0,0-5.966,7.893l-.344,1.521,1.46-1.068a12,12,0,0,0,4.792-7.959Z" transform="translate(-347.713 -293.066)"/><path class="w" d="M440.1,395.319a12,12,0,0,1,3.882,9.1l-.034,1.558-1.159-1.389a12,12,0,0,1-2.728-8.882Z" transform="translate(-331.358 -300.919)"/><path class="w" d="M337.231,485.619H300.809a.809.809,0,1,1,0-1.619h36.421a.809.809,0,0,1,0,1.619Z" transform="translate(-219.688 -371.656)"/></g><g transform="translate(1705 939)"><path class="y" d="M1.785,24.99A1.785,1.785,0,0,0,3.57,23.2V0H0V23.2A1.785,1.785,0,0,0,1.785,24.99Z" transform="translate(12.543 66.136) rotate(158.337)"/><path class="u" d="M231.454,110.111H240.4v-2a4.1,4.1,0,0,0-8.046-1.136Z" transform="translate(-180.806 -104.005)"/><ellipse class="y" cx="12.834" cy="3.076" rx="12.834" ry="3.076" transform="matrix(-0.973, -0.232, 0.232, -0.973, 67.221, 12.213)"/><path class="m" d="M166,153.187l3.112-17.6a6.162,6.162,0,0,1,2.65-4.054,6.175,6.175,0,0,0,2.1-2.374l.4-.794a6.177,6.177,0,0,0,.653-2.764V123.25l10.1,2.617a9.068,9.068,0,0,0,4.548,5.243l.237.118a9.069,9.069,0,0,1,4.644,5.552l4.825,16.406Z" transform="translate(-125.05 -118.954)"/><path class="ab" d="M191.2,305h31.657l.547,3.281a6.383,6.383,0,0,1-6.3,7.433H192.5V317.5l25,1.786h4.464l2.45,14.7a.446.446,0,0,1-.756.389L219.284,330l-29.1-2.646A11.2,11.2,0,0,1,191.2,305Z" transform="translate(-153.334 -260.135)"/><path class="aa" d="M301.93,238.979v7.143a.893.893,0,0,0,.893.893h25.2a6.7,6.7,0,0,0,6.07-3.865l3.792-8.124-8.29-4.386-3.841,7.446H309.073l-1.786-2.679a1.885,1.885,0,0,0-1.783,2.525l.054.154h-2.734A.893.893,0,0,0,301.93,238.979Z" transform="translate(-294.016 -202.374)"/><path class="q" d="M271,194.411l8.29,4.386,6.9-14.8h-5.741a6.7,6.7,0,0,0-5.951,3.625Z" transform="translate(-235.423 -166.144)"/><path class="q" d="M171.052,188.357l4.377,26h25.247L196.311,184H174.737a3.737,3.737,0,0,0-3.685,4.357Z" transform="translate(-127.583 -166.144)"/><path class="o" d="M188.9,238.3v7.143a.893.893,0,0,0,.893.893h28a6.7,6.7,0,0,0,6.067-3.863l3.9-8.369-8.42-4.337-3.942,7.641H196.936l-1.786-2.679H194.6a1.533,1.533,0,0,0-1.455,2.018l.221.661h-3.571A.893.893,0,0,0,188.9,238.3Z" transform="translate(-158.664 -201.698)"/><path class="q" d="M173.938,186.181l-4,7.748,8.42,4.337,3.763-8.065a4.56,4.56,0,1,0-8.186-4.02Z" transform="translate(-109.263 -165.856)"/><path class="t" d="M205.6,199.83a.893.893,0,0,0,.794-.483l3.6-6.985a.893.893,0,0,0-1.587-.819l-3.6,6.985a.893.893,0,0,0,.793,1.3Z" transform="translate(-144.531 -171.628)"/><path class="o" d="M238.714,159.514v-8.576h4.751v8.576a2.376,2.376,0,0,1-4.751,0Z" transform="translate(-185.487 -140.462)"/><path class="k" d="M435.9,182.33h1.786v-8.167a30.72,30.72,0,0,0-1.27-8.742l-1.946-6.559-1.712.508,1.947,6.56a28.932,28.932,0,0,1,1.2,8.233Z" transform="translate(-423.02 -146.617)"/><path class="w" d="M437.494,208.239a6.032,6.032,0,0,0,6.266,4.471l1.436-.1-.647-1.286a6.032,6.032,0,0,0-7.054-3.08Z" transform="translate(-431.588 -184.79)"/><path class="w" d="M410.7,195.078a6.032,6.032,0,0,1-6.266,4.471l-1.436-.1.647-1.286A6.032,6.032,0,0,1,410.7,195.078Z" transform="translate(-389.395 -174.566)"/><path class="ac" d="M425.686,248h-8.928l1.786,7.143H423.9Z" transform="translate(-407.449 -215.859)"/><path class="c" d="M51.9,313.341h1.786v-8.167a30.717,30.717,0,0,0-1.27-8.742l-1.946-6.559-1.712.508,1.947,6.56a28.931,28.931,0,0,1,1.2,8.233Z" transform="translate(46.694 -248.385)"/><path class="w" d="M53.494,339.252a6.032,6.032,0,0,0,6.266,4.471l1.436-.1-.647-1.286a6.032,6.032,0,0,0-7.054-3.08Z" transform="translate(38.125 -286.56)"/><path class="w" d="M26.7,326.088a6.032,6.032,0,0,1-6.266,4.471l-1.436-.1.647-1.286A6.032,6.032,0,0,1,26.7,326.088Z" transform="translate(80.319 -276.333)"/><path class="ac" d="M41.686,379.011H32.757l1.786,7.143H39.9Z" transform="translate(62.265 -317.626)"/><path class="w" d="M117.494,339.25a6.032,6.032,0,0,0,6.266,4.471l1.436-.1-.647-1.286a6.032,6.032,0,0,0-7.053-3.08Z" transform="translate(-40.16 -286.558)"/><path class="w" d="M90.7,326.088a6.032,6.032,0,0,1-6.266,4.471l-1.436-.1.647-1.286A6.032,6.032,0,0,1,90.7,326.088Z" transform="translate(2.033 -276.333)"/><path class="u" d="M424.119,381.038l2.993,5.232,1.022,1.786h7.857a3.121,3.121,0,0,0-.054-1.185l-.145-.6-2.163-9.007a.893.893,0,0,0-1.536-.386l-2.855,3.194-4.27-.366a.893.893,0,0,0-.85,1.333Z" transform="translate(-419.405 -315.736)"/><path class="p" d="M175.2,320h31.657l.547,3.281a6.383,6.383,0,0,1-6.3,7.433H176.5V332.5l25,1.786h4.464l2.45,14.7a.446.446,0,0,1-.756.389L203.284,345l-29.1-2.646A11.2,11.2,0,0,1,175.2,320Z" transform="translate(-133.763 -271.787)"/><path class="z" d="M247.571,148H244v7.143a3.571,3.571,0,0,0,3.571-3.571Z" transform="translate(-190.773 -138.18)"/><ellipse class="o" cx="2.079" cy="2.079" rx="2.079" ry="2.079" transform="translate(55.503 7.803)"/><path class="o" d="M239.161,136.284v3.579a2.969,2.969,0,0,0,2.969,2.969,4.157,4.157,0,0,0,4.158-4.157v-1.305a4.547,4.547,0,0,1-3.947-2.827l-.064-.156Z" transform="translate(-188.41 -127.605)"/><path class="c" d="M115.9,313.341h1.786v-8.167a30.717,30.717,0,0,0-1.27-8.742l-1.946-6.559-1.712.508,1.947,6.56a28.931,28.931,0,0,1,1.2,8.233Z" transform="translate(-31.592 -248.385)"/><g transform="translate(6.146 2.897)"><path class="q" d="M50.421,273.556a2.8,2.8,0,0,1,1.549,4.768,2.8,2.8,0,0,1-4.056,2.946,2.8,2.8,0,0,1-4.056-2.946,2.8,2.8,0,0,1,1.549-4.768,2.8,2.8,0,0,1,5.014,0Z" transform="translate(42.7 -237.397)"/><path class="q" d="M114.42,273.558a4.056,4.056,0,0,1-2.507,7.714,4.056,4.056,0,0,1-2.507-7.714,2.8,2.8,0,0,1,5.014,0Z" transform="translate(-35.585 -237.399)"/><path class="q" d="M434.421,142.545a2.8,2.8,0,0,1,1.549,4.768,4.056,4.056,0,0,1-8.112,0,2.8,2.8,0,0,1,1.549-4.768,2.8,2.8,0,0,1,5.014,0Z" transform="translate(-427.013 -135.629)"/></g><ellipse class="t" cx="1.786" cy="1.786" rx="1.786" ry="1.786" transform="translate(9.337 11.513)"/><ellipse class="t" cx="1.786" cy="1.786" rx="1.786" ry="1.786" transform="translate(95.051 40.757)"/><ellipse class="t" cx="1.786" cy="1.786" rx="1.786" ry="1.786" transform="translate(80.765 40.757)"/><path class="n" d="M364,420.893a.893.893,0,0,0,.893.893h26.785a.893.893,0,1,0,0-1.786H364.893A.893.893,0,0,0,364,420.893Z" transform="translate(-362.559 -349.466)"/><path class="ac" d="M105.686,379.011H96.757l1.786,7.143H103.9Z" transform="translate(-16.021 -317.626)"/></g><g transform="translate(44.831 858.827)"><circle class="c" cx="118.219" cy="118.219" r="118.219" transform="translate(-113.197 -201.104)"/><path class="x" d="M280.711,175.018l-5.422-5.422-27.11,10.844V126.22l21.688-32.532-5.422-5.422-27.11,37.954-20.784-36.6L184.245,72l-6.552,5.422,32.532,20.332,21.688,39.309V153.33l-48.8-18.734L172.272,96.642l-10.844-2.954,5.422,35.486L145.162,118.33,144,129.173,231.913,169.6v130.28h27.11l-10.844-59.794V196.706Z" transform="translate(-231.691 -197.12)"/><path class="ac" d="M53.787,258.226v-13.67a4.785,4.785,0,0,0-1.056-3,4.785,4.785,0,0,1-1.056-3v-.366a6.15,6.15,0,0,0-4.017-5.768,6.8,6.8,0,0,0-8.379,3.211l-.043.082a9.552,9.552,0,0,1-6.075,4.8,9.553,9.553,0,0,0-4.378,2.5l-1.56,1.559a9.86,9.86,0,0,0-7.223,9.5,9.4,9.4,0,0,0,9.4,9.4H48.54a5.246,5.246,0,0,0,5.247-5.246Z" transform="translate(-18.678 -184.662)"/><path class="o" d="M172.98,308.286v-4.223a1.056,1.056,0,0,0-1.056-1.056h-2.244l.046-.729a1.3,1.3,0,0,0-1.3-1.383h-.639l-1.144,2.112H153.363l-2.047-11.843a3.542,3.542,0,0,0-6.987,1.173l2.189,13.462a4.223,4.223,0,0,0,4.169,3.546h21.238a1.056,1.056,0,0,0,1.056-1.058Z" transform="translate(-110.154 -226.045)"/><path class="q" d="M88.795,288.225H64.528a.458.458,0,0,0-.458.456L64,311.454H85.117l1.974-13.308a4.951,4.951,0,0,0,2.634-5.434Z" transform="translate(-51.063 -226.045)"/><circle class="o" cx="1.704" cy="1.704" r="1.704" transform="translate(21.936 54.789)"/><path class="o" d="M104,264.225v8.447a2.112,2.112,0,1,0,4.223,0v-8.447Z" transform="translate(-80.505 -208.38)"/><path class="z" d="M108,268h3.168v4.223A3.168,3.168,0,0,1,108,269.056Z" transform="translate(-83.449 -211.158)"/><path class="o" d="M110.335,252.265v3.854a2.062,2.062,0,0,1-2.062,2.062h-.05A4.223,4.223,0,0,1,104,253.958l1.436-.479a2.532,2.532,0,0,0,1.731-2.4v-.8h1.178a1.989,1.989,0,0,1,1.989,1.99Z" transform="translate(-80.505 -198.113)"/><path class="ac" d="M40.447,376.225H61.835l3.08,4.174a32.093,32.093,0,0,1,6.269,19.055H32v-2.112a8.447,8.447,0,0,1,8.447-8.447Z" transform="translate(-27.51 -290.816)"/><path class="o" d="M56.157,329.564l5.654-1.028a1.056,1.056,0,0,0,.85-1.226l-.446-2.471,1.249-.348a1.507,1.507,0,0,0,1.079-1.721l-.154-.845-2.66.216-2.311-12.8V291.916a3.691,3.691,0,1,0-7.382.009l.042,16.658a10.551,10.551,0,0,0,.112,1.51l2.734,18.586a1.056,1.056,0,0,0,1.234.885Z" transform="translate(-42.257 -226.045)"/><path class="ad" d="M259.9,360.453v6.335a1.057,1.057,0,0,1-1.056,1.056H224V359.4h28.408l1.156-3.168h1.713a1.056,1.056,0,0,1,1,1.394l-.6,1.774h3.168A1.056,1.056,0,0,1,259.9,360.453Z" transform="translate(-168.829 -276.099)"/><path class="ae" d="M342.9,373.358a.528.528,0,0,0-.967-.293l-3.256,4.884H288v16.834h6.335V386.4H342.9Z" transform="translate(-215.935 -288.317)"/><path class="p" d="M297.436,394.785l-18.2-17.121a7.919,7.919,0,0,0-10.881.026l-15.689,14.9H240v8.447h13.509a8.534,8.534,0,0,0,5.849-2.319l15.485-14.574L294.038,403.6l9.637-8.783a.528.528,0,0,0-.435-.912Z" transform="translate(-180.606 -290.291)"/><path class="af" d="M172.611,385.363l27.065,1.8v21.117L168,409.868V389.675a4.323,4.323,0,0,1,4.611-4.312Z" transform="translate(-127.611 -297.535)"/><path class="af" d="M182.782,368.23v8.447H168v-3.168a5.278,5.278,0,0,1,5.279-5.279Z" transform="translate(-127.611 -284.931)"/><path class="s" d="M149.322,428.445l-9.322-.01,4.157-4.215,5.17.006a2.21,2.21,0,0,1,2.14,1.544A2.135,2.135,0,0,1,149.322,428.445Z" transform="translate(-107.002 -326.142)"/><path class="ag" d="M144,424.232h5.279a2.64,2.64,0,0,1-2.64,2.64H144Z" transform="translate(-109.946 -326.151)"/><path class="af" d="M182.782,464.23v7.391H171.7a3.7,3.7,0,0,1,0-7.391Z" transform="translate(-127.611 -355.591)"/><path class="s" d="M241.709,386.432a1.056,1.056,0,0,1,.8,1.264l-4.9,21.524a5.279,5.279,0,0,1-5.147,4.107H224v-7.391h6.335l2.906-14.531-3.212-1.821.351-1a1.726,1.726,0,0,1,2.228-1.048l.15.055a1.056,1.056,0,0,0,1.4-.784l.187-.929a1.053,1.053,0,0,1,1.267-.824Z" transform="translate(-168.829 -297.297)"/><path class="w" d="M199.391,462.112h-6.335a1.056,1.056,0,1,1,0-2.112h6.335a1.056,1.056,0,1,1,0,2.112Z" transform="translate(-145.276 -352.477)"/><path class="s" d="M127.085,405.814l5.248,1.466a2.812,2.812,0,0,1,1.952,3.465,4.178,4.178,0,0,1-5.147,2.9l-3.933-1.1Z" transform="translate(-96.112 -312.594)"/><path class="m" d="M114.4,388.456l3.066,1.161a3.94,3.94,0,0,1,1.991,5.7l-1.34,2.251a2.9,2.9,0,0,1,2.011,3.57l-.246.882-3.839-1.072a3.548,3.548,0,0,1-2.573-3.8Z" transform="translate(-87.462 -299.818)"/><circle class="s" cx="1.589" cy="1.589" r="1.589" transform="translate(31.415 99.125)"/></g></g></svg>